<?xml version="1.0" encoding="UTF-8" standalone="no"?>
<!-- Created with Inkscape (http://www.inkscape.org/) -->

<svg
   width="120"
   height="120"
   viewBox="0 0 120 120"
   version="1.1"
   id="svg1"
   xml:space="preserve"
   xmlns="http://www.w3.org/2000/svg"
   xmlns:svg="http://www.w3.org/2000/svg"><defs
     id="defs1" /><g
     id="layer1"><path
       style="fill:#050505;stroke:none"
       d="m 88.133945,21.657459 -3.62578,6.850829 -1.43493,2.397178 -3.90103,2.307142 -6.77596,3.69347 3.27869,-5.966851 -4.37159,1.325967 0.21858,-3.093922 -2.84153,1.767955 -1.09289,-4.640884 -3.93443,3.093923 -1.0929,-2.872928 h -0.21858 l -1.53005,2.651934 -2.40437,-3.756906 h -0.21858 l -0.87432,6.850828 -2.85468,-2.651933 -5.01316,-5.303868 -2.40538,-2.209945 -3.30601,11.933702 -0.60413,4.579498 -5.270189,4.260281 c 2.006289,0.02477 2.984899,0.678988 4.590169,1.767956 v 0.220994 l -5.683066,4.833229 -2.62295,2.680584 h 2.185792 l -3.235177,7.734806 -1.336773,3.756907 1.948999,10.165746 h 0.218579 l 1.179923,-11.270718 3.191662,-5.745858 h 0.218579 l -1.526005,11.27072 1.873102,8.618784 1.129327,4.406589 4.206638,4.004499 8.52459,7.721507 -3.27869,-8.618785 8.52054,9.060774 4.81279,4.861878 0.24793,-4.419889 -10e-4,-3.314916 -3.5256,-4.41989 5.02732,3.344592 8.30601,3.064248 -3.23517,-4.41989 -5.94516,-7.734805 6.99454,3.756905 -0.43716,-7.071822 6.77596,3.53591 c 1.50782,-2.127907 3.09563,-4.219099 4.51528,-6.408838 0.65101,-1.004167 0.71343,-2.266266 -0.79943,-2.489257 -0.71993,-0.106113 -1.54696,0.448194 -2.1858,0.721301 -1.81908,0.777675 -4.34483,2.660148 -6.3388,2.695926 -1.86945,0.03355 -3.87365,-1.983447 -5.68306,-2.474932 V 72.48619 l 9.39891,-0.883978 v -0.220995 l -3.49728,-0.250669 -8.30601,-0.412314 v -0.220995 l 11.5847,-1.546961 v -0.220994 l -9.61749,-1.104973 v -0.220994 l 6.3388,-0.883978 V 66.298344 L 67.368925,64.0884 v -0.220995 l 2.84153,0.124822 5.46448,2.748106 c -1.38305,-2.08407 -3.69964,-5.119136 -5.90164,-6.33108 -2.93559,-1.615691 -6.9488,-2.095043 -9.58814,-4.181508 -1.99128,-1.574168 -3.96798,-4.766765 -5.27525,-6.945976 l 3.93443,2.341929 2.18579,-0.703907 4.59016,-2.080011 -1.74863,-4.198895 4.83809,6.174546 5.65371,5.096172 c -4.3708,-1.145255 -8.0677,-3.535911 -12.67759,-3.535911 v 0.220994 c 0.82273,0.398421 1.70376,0.709721 2.37502,1.359728 1.02319,0.990793 1.62297,2.481764 2.74641,3.363004 1.1798,0.925448 2.99457,0.295046 4.24408,1.037449 0.79934,0.474928 1.20213,1.630684 1.62619,2.416616 0.84125,1.559121 1.73558,3.091204 2.5936,4.640884 1.00201,1.809716 2.30825,2.919038 3.90104,4.198895 0.52029,0.418074 1.23445,1.1961 1.96721,1.083485 1.10881,-0.170406 3.58352,-2.77712 3.34547,-3.956414 -0.14153,-0.701135 -0.75571,-1.386509 -1.11617,-1.98895 -1.16014,-1.938976 -2.9378,-4.020868 -3.62578,-6.187846 -0.43771,-1.378707 0.27749,-3.212048 0.30257,-4.640884 0.0445,-2.536689 -0.64625,-4.991179 -0.65473,-7.513812 h 0.21858 c 0.4908,1.847065 2.41547,3.611534 2.4914,5.524862 0.0679,1.712336 -1.68843,3.165821 -1.7881,4.861877 -0.12008,2.043403 2.00905,5.143626 3.01255,6.850831 h 0.21858 l -1.21737,-3.756907 1.87311,-4.640884 -2.62295,1.546961 c 0.72448,-0.732489 1.74794,-1.492825 2.21008,-2.430939 0.66321,-1.346287 -0.23663,-5.312048 -1.15159,-6.40884 -0.78318,-0.938814 -3.6354,-2.522674 -3.59341,-3.847966 0.0176,-0.556304 0.6023,-1.216192 0.87331,-1.676896 0.68665,-1.167289 1.33417,-2.36059 2.0087,-3.53591 1.56766,-2.731556 3.71702,-5.656482 4.78749,-8.618786 0.47392,-1.311467 0.58304,-2.830337 0.85408,-4.198895 0.24924,-1.258471 0.93983,-3.197055 0.56871,-4.41989 m -40,5.966851 1.53006,17.237569 h -0.21858 l -2.68569,-4.861878 -1.2113,-2.651934 1.30237,-5.745856 1.28314,-3.977901 m 4.59017,1.767956 3.55798,5.299774 7.58956,6.412933 v 0.220995 l -4.37159,-1.546962 v 1.988951 l -2.18579,-2.651934 -3.65614,-6.629834 -0.93402,-3.093923 m 16.87413,3.446727 v 0.752168 l -0.564869,0.441989 v -0.715976 m 2.925669,7.787799 2.71302,6.187846 2.09572,5.303867 c -1.41586,-1.034846 -2.62236,-2.642438 -3.77252,-3.977901 -0.4745,-0.550954 -1.15455,-1.075547 -1.42987,-1.767955 -0.47233,-1.187933 -0.14026,-4.628016 0.39365,-5.745857 m -8.08744,3.314917 -0.21858,0.220995 0.21858,-0.220995 m 15.51913,1.767955 -0.21858,0.220996 0.21858,-0.220996 m -26.66666,4.640886 3.00749,6.187845 1.6525,2.689789 2.33454,0.581136 5.46448,0.927971 v 0.220994 l -5.90164,0.605691 -5.68306,2.046243 -0.7124,-8.618786 -0.16191,-4.640883 m 21.85805,5.082872 -0.21858,0.220996 0.21858,-0.220996 m -35.846992,0.662985 -0.21858,0.220993 0.21858,-0.220993 m 42.841532,0.220993 -0.43716,0.441989 0.43716,-0.441989 m -34.53552,0.662983 v 5.745858 l 0.19429,2.651933 4.34831,4.861879 -0.16697,3.535912 -0.22263,8.839779 h -0.21858 l -1.90244,-7.513813 -0.90164,-3.093922 -4.27444,-4.861879 0.73973,-2.872928 2.40437,-7.292819 m 2.40437,26.740332 -0.21858,0.220994 0.21858,-0.220994 m 9.83607,1.546962 0.21857,0.441988 z m 6.77586,-55.166878 0.43717,1.575377 -1.596382,1.436804 -0.216102,-2.226413 m -2.537491,-1.088504 0.314734,0.780917 -0.314734,0.799977 -0.346466,-0.799977"
       id="path7" /><rect
       style="fill:#000000;fill-opacity:1;fill-rule:evenodd;stroke:#000000;stroke-width:0;stroke-linecap:square;stroke-linejoin:round;stroke-dasharray:none;stroke-opacity:1"
       id="rect52"
       width="3.2660983"
       height="37.299881"
       x="90.24128"
       y="38.183765"
       ry="1.6330491"
       rx="1.6330491" /><rect
       style="fill:#000000;fill-opacity:1;fill-rule:evenodd;stroke:#000000;stroke-width:0;stroke-linecap:square;stroke-linejoin:round;stroke-dasharray:none;stroke-opacity:1"
       id="rect53"
       width="3.2660983"
       height="25.897785"
       x="96.24128"
       y="43.884811"
       ry="1.6330491"
       rx="1.6330491" /><rect
       style="fill:#000000;fill-opacity:1;fill-rule:evenodd;stroke:#000000;stroke-width:0;stroke-linecap:square;stroke-linejoin:round;stroke-dasharray:none;stroke-opacity:1"
       id="rect54"
       width="3.2660983"
       height="44.194172"
       x="102.24128"
       y="34.736618"
       ry="1.6330491"
       rx="1.6330491" /><rect
       style="fill:#000000;fill-opacity:1;fill-rule:evenodd;stroke:#000000;stroke-width:0;stroke-linecap:square;stroke-linejoin:round;stroke-dasharray:none;stroke-opacity:1"
       id="rect55"
       width="3.2660983"
       height="16.97056"
       x="108.24128"
       y="48.348423"
       ry="1.6330491"
       rx="1.6330491" /><rect
       style="fill:#000000;fill-opacity:1;fill-rule:evenodd;stroke:#000000;stroke-width:0;stroke-linecap:square;stroke-linejoin:round;stroke-dasharray:none;stroke-opacity:1"
       id="rect56"
       width="3.2660983"
       height="25.897785"
       x="24.241278"
       y="43.884811"
       ry="1.6330491"
       rx="1.6330491" /><rect
       style="fill:#000000;fill-opacity:1;fill-rule:evenodd;stroke:#000000;stroke-width:0;stroke-linecap:square;stroke-linejoin:round;stroke-dasharray:none;stroke-opacity:1"
       id="rect57"
       width="3.2660983"
       height="19.549881"
       x="12.241279"
       y="47.058765"
       ry="1.6330491"
       rx="1.6330491" /><rect
       style="fill:#000000;fill-opacity:1;fill-rule:evenodd;stroke:#000000;stroke-width:0;stroke-linecap:square;stroke-linejoin:round;stroke-dasharray:none;stroke-opacity:1"
       id="rect58"
       width="3.2660983"
       height="44.194172"
       x="18.241278"
       y="34.736618"
       ry="1.6330491"
       rx="1.6330491" /><rect
       style="fill:#000000;fill-opacity:1;fill-rule:evenodd;stroke:#000000;stroke-width:0;stroke-linecap:square;stroke-linejoin:round;stroke-dasharray:none;stroke-opacity:1"
       id="rect59"
       width="3.2660983"
       height="25.897785"
       x="6.2412782"
       y="43.884811"
       ry="1.6330491"
       rx="1.6330491" /></g></svg>
