<?xml version="1.0" encoding="UTF-8" standalone="no"?>
<!-- Created with Inkscape (http://www.inkscape.org/) -->

<svg
   width="180"
   height="180"
   viewBox="0 0 180 180"
   version="1.1"
   id="svg1"
   xml:space="preserve"
   inkscape:version="1.4.2 (f4327f4, 2025-05-13)"
   sodipodi:docname="speaker.svg"
   inkscape:export-filename="..\GitHub Repositories\AstroBytee.github.io\itis3135\regallynx.com\GitHub Repositories\AstroBytee.github.io\itis3135\regallynx.com\images\speaker.svg"
   inkscape:export-xdpi="96"
   inkscape:export-ydpi="96"
   xmlns:inkscape="http://www.inkscape.org/namespaces/inkscape"
   xmlns:sodipodi="http://sodipodi.sourceforge.net/DTD/sodipodi-0.dtd"
   xmlns="http://www.w3.org/2000/svg"
   xmlns:svg="http://www.w3.org/2000/svg"><sodipodi:namedview
     id="namedview1"
     pagecolor="#505050"
     bordercolor="#eeeeee"
     borderopacity="1"
     inkscape:showpageshadow="0"
     inkscape:pageopacity="0"
     inkscape:pagecheckerboard="0"
     inkscape:deskcolor="#505050"
     inkscape:document-units="px"
     inkscape:zoom="3.8375966"
     inkscape:cx="87.29422"
     inkscape:cy="70.356535"
     inkscape:window-width="1920"
     inkscape:window-height="1166"
     inkscape:window-x="-11"
     inkscape:window-y="-11"
     inkscape:window-maximized="1"
     inkscape:current-layer="layer1" /><defs
     id="defs1"><inkscape:path-effect
       effect="fillet_chamfer"
       id="path-effect1"
       is_visible="true"
       lpeversion="1"
       nodesatellites_param="F,0,0,1,0,0.30935922,0,1 @ F,0,0,1,0,0.30935922,0,1 @ F,0,0,1,0,0.30935922,0,1 @ F,0,0,1,0,0.30935922,0,1"
       radius="0"
       unit="px"
       method="auto"
       mode="F"
       chamfer_steps="1"
       flexible="false"
       use_knot_distance="true"
       apply_no_radius="true"
       apply_with_radius="true"
       only_selected="false"
       hide_knots="false" /></defs><g
     inkscape:label="Layer 1"
     inkscape:groupmode="layer"
     id="layer1"><path
       id="path58"
       style="fill-rule:evenodd;stroke:#000000;stroke-width:0;stroke-linecap:square;stroke-linejoin:round"
       d="M 56.277344 15.744141 C 50.833574 15.744141 46.451172 20.126545 46.451172 25.570312 L 46.451172 154.42969 C 46.451172 159.87346 50.833574 164.25586 56.277344 164.25586 L 123.72266 164.25586 C 129.16643 164.25586 133.54883 159.87346 133.54883 154.42969 L 133.54883 25.570312 C 133.54883 20.126542 129.16643 15.744141 123.72266 15.744141 L 56.277344 15.744141 z M 54.806641 19.744141 A 4.3548388 4.2627654 0 0 1 59.162109 24.007812 A 4.3548388 4.2627654 0 0 1 54.806641 28.269531 A 4.3548388 4.2627654 0 0 1 50.451172 24.007812 A 4.3548388 4.2627654 0 0 1 54.806641 19.744141 z M 125.19336 19.744141 A 4.3548388 4.2627654 0 0 1 129.54883 24.007812 A 4.3548388 4.2627654 0 0 1 125.19336 28.269531 A 4.3548388 4.2627654 0 0 1 120.83789 24.007812 A 4.3548388 4.2627654 0 0 1 125.19336 19.744141 z M 105.33789 38.464844 C 105.53244 39.105874 105.17167 40.12154 105.04102 40.78125 C 104.89893 41.49867 104.84023 42.294932 104.5918 42.982422 C 104.03064 44.535302 102.90382 46.070033 102.08203 47.501953 C 101.72843 48.118073 101.38925 48.743559 101.0293 49.355469 C 100.88723 49.596979 100.58149 49.942755 100.57227 50.234375 C 100.55027 50.929115 102.04452 51.759813 102.45508 52.251953 C 102.93471 52.826913 103.40626 54.905578 103.05859 55.611328 C 102.81633 56.103098 102.28017 56.500796 101.90039 56.884766 L 103.27539 56.074219 L 102.29297 58.507812 L 102.93164 60.476562 L 102.81836 60.476562 C 102.29231 59.581623 101.17533 57.955966 101.23828 56.884766 C 101.29058 55.995686 102.21138 55.233565 102.17578 54.335938 C 102.13598 53.332937 101.12643 52.407713 100.86914 51.439453 L 100.75586 51.439453 C 100.75986 52.761853 101.12098 54.049136 101.09766 55.378906 C 101.08446 56.127906 100.71 57.08976 100.93945 57.8125 C 101.3001 58.94846 102.23168 60.038247 102.83984 61.054688 C 103.0288 61.370497 103.35159 61.730106 103.42578 62.097656 C 103.55057 62.715856 102.25306 64.082555 101.67188 64.171875 C 101.28775 64.230875 100.91344 63.822696 100.64062 63.603516 C 99.8057 62.932596 99.120971 62.351024 98.595703 61.402344 C 98.145916 60.589984 97.677324 59.788023 97.236328 58.970703 C 97.01403 58.558713 96.80184 57.952095 96.382812 57.703125 C 95.727801 57.313955 94.776672 57.645316 94.158203 57.160156 C 93.569278 56.698186 93.255121 55.915874 92.71875 55.396484 C 92.366866 55.055744 91.905897 54.892454 91.474609 54.683594 L 91.474609 54.568359 C 93.891181 54.568359 95.827903 55.821525 98.119141 56.421875 L 95.15625 53.75 L 92.619141 50.513672 L 93.537109 52.714844 L 91.130859 53.804688 L 89.984375 54.173828 L 87.921875 52.945312 C 88.607164 54.087694 89.643642 55.762691 90.6875 56.587891 C 92.071081 57.681651 94.17401 57.932327 95.712891 58.779297 C 96.867211 59.414607 98.081626 61.005156 98.806641 62.097656 L 95.943359 60.658203 L 94.453125 60.591797 L 94.453125 60.708984 L 97.087891 61.867188 L 97.087891 61.982422 L 93.765625 62.445312 L 93.765625 62.5625 L 98.806641 63.140625 L 98.806641 63.255859 L 92.734375 64.068359 L 92.734375 64.183594 L 97.087891 64.400391 L 98.921875 64.53125 L 98.921875 64.646484 L 93.994141 65.109375 L 93.994141 65.226562 C 94.94266 65.484212 95.994615 66.541016 96.974609 66.523438 C 98.019878 66.504638 99.343247 65.517045 100.29688 65.109375 C 100.63173 64.966215 101.06596 64.676792 101.44336 64.732422 C 102.23642 64.849322 102.2026 65.510709 101.86133 66.037109 C 101.11713 67.184999 100.28456 68.281004 99.494141 69.396484 L 95.943359 67.542969 L 96.171875 71.25 L 92.505859 69.28125 L 95.621094 73.335938 L 97.318359 75.652344 L 92.962891 74.046875 L 90.328125 72.292969 L 92.175781 74.609375 L 92.175781 76.347656 L 92.046875 78.664062 L 89.523438 76.115234 L 85.056641 71.365234 L 86.775391 75.884766 L 82.306641 71.835938 L 80.101562 69.736328 L 79.509766 67.427734 L 78.527344 62.910156 L 79.328125 57 L 79.212891 57 L 77.541016 60.013672 L 76.921875 65.921875 L 76.806641 65.921875 L 75.785156 60.591797 L 76.486328 58.623047 L 78.181641 54.568359 L 77.037109 54.568359 L 78.412109 53.162109 L 81.390625 50.628906 L 81.390625 50.513672 C 80.549119 49.942822 80.036109 49.598917 78.984375 49.585938 L 81.748047 47.353516 L 82.064453 44.953125 L 83.796875 38.697266 L 85.058594 39.855469 L 87.685547 42.634766 L 89.181641 44.025391 L 89.640625 40.435547 L 89.755859 40.435547 L 91.015625 42.404297 L 91.818359 41.013672 L 91.931641 41.013672 L 92.505859 42.519531 L 94.568359 40.898438 L 95.140625 43.330078 L 96.630859 42.404297 L 96.515625 44.025391 L 98.806641 43.330078 L 97.087891 46.458984 L 100.64062 44.523438 L 102.68555 43.3125 L 103.4375 42.056641 L 105.33789 38.464844 z M 84.369141 41.59375 L 83.697266 43.677734 L 83.013672 46.689453 L 83.648438 48.080078 L 85.056641 50.628906 L 85.171875 50.628906 L 84.369141 41.59375 z M 86.775391 42.519531 L 87.265625 44.142578 L 89.181641 47.617188 L 90.328125 49.007812 L 90.328125 47.964844 L 92.619141 48.775391 L 92.619141 48.660156 L 88.640625 45.298828 L 86.775391 42.519531 z M 91.714844 42.982422 L 91.533203 43.392578 L 91.714844 43.8125 L 91.878906 43.392578 L 91.714844 42.982422 z M 93.765625 43.142578 L 93.044922 43.554688 L 93.158203 44.720703 L 93.994141 43.96875 L 93.765625 43.142578 z M 95.621094 44.326172 L 95.326172 44.578125 L 95.326172 44.953125 L 95.621094 44.720703 L 95.621094 44.326172 z M 69.554688 45.322266 C 70.028948 45.322266 70.412109 46.050368 70.412109 46.955078 L 70.412109 66.855469 C 70.412109 67.760179 70.028948 68.488281 69.554688 68.488281 C 69.080416 68.488281 68.699219 67.760179 68.699219 66.855469 L 68.699219 46.955078 C 68.699219 46.050368 69.080416 45.322266 69.554688 45.322266 z M 113.58984 45.322266 C 114.06411 45.322266 114.44531 46.050369 114.44531 46.955078 L 114.44531 66.855469 C 114.44531 67.760178 114.06411 68.488281 113.58984 68.488281 C 113.11558 68.488281 112.73436 67.760178 112.73438 66.855469 L 112.73438 46.955078 C 112.73438 46.050369 113.11558 45.322266 113.58984 45.322266 z M 107.29883 47.128906 C 107.77309 47.128906 108.1543 47.85701 108.1543 48.761719 L 108.1543 65.048828 C 108.1543 65.953537 107.77309 66.681641 107.29883 66.681641 C 106.82457 66.681641 106.44336 65.953537 106.44336 65.048828 L 106.44336 48.761719 C 106.44336 47.85701 106.82457 47.128906 107.29883 47.128906 z M 96.859375 48.660156 C 96.579492 49.246136 96.404741 51.049145 96.652344 51.671875 C 96.796671 52.034845 97.153604 52.310789 97.402344 52.599609 C 98.005274 53.299679 98.638645 54.141114 99.380859 54.683594 L 98.28125 51.904297 L 96.859375 48.660156 z M 63.265625 50.117188 C 63.739895 50.117188 64.121094 50.84529 64.121094 51.75 L 64.121094 62.060547 C 64.121094 62.965247 63.739895 63.693359 63.265625 63.693359 C 62.791365 63.693359 62.408203 62.965257 62.408203 62.060547 L 62.408203 51.75 C 62.408203 50.84529 62.791365 50.117186 63.265625 50.117188 z M 72.701172 50.117188 C 73.175432 50.117188 73.556641 50.84529 73.556641 51.75 L 73.556641 62.060547 C 73.556641 62.965247 73.175432 63.693359 72.701172 63.693359 C 72.226912 63.693359 71.845703 62.965257 71.845703 62.060547 L 71.845703 51.75 C 71.845703 50.84529 72.226912 50.117186 72.701172 50.117188 z M 110.44531 50.117188 C 110.91957 50.117188 111.30078 50.84529 111.30078 51.75 L 111.30078 62.060547 C 111.30078 62.965247 110.91957 63.693359 110.44531 63.693359 C 109.97105 63.693359 109.58789 62.965257 109.58789 62.060547 L 109.58789 51.75 C 109.58789 50.84529 109.97105 50.117186 110.44531 50.117188 z M 66.410156 51.78125 C 66.884426 51.78125 67.265625 52.509352 67.265625 53.414062 L 67.265625 60.396484 C 67.265625 61.301194 66.884426 62.029297 66.410156 62.029297 C 65.935896 62.029297 65.554688 61.301194 65.554688 60.396484 L 65.554688 53.414062 C 65.554688 52.509352 65.935896 51.78125 66.410156 51.78125 z M 116.73438 52.457031 C 117.20864 52.457031 117.5918 53.185135 117.5918 54.089844 L 117.5918 59.720703 C 117.5918 60.625412 117.20864 61.353516 116.73438 61.353516 C 116.26011 61.353516 115.87891 60.625412 115.87891 59.720703 L 115.87891 54.089844 C 115.87891 53.185135 116.26011 52.457031 116.73438 52.457031 z M 86.775391 53.757812 L 86.861328 56.189453 L 87.234375 60.708984 L 90.212891 59.634766 L 93.306641 59.318359 L 93.306641 59.201172 L 90.443359 58.714844 L 89.21875 58.410156 L 88.351562 57 L 86.775391 53.757812 z M 83.796875 57.232422 L 82.537109 61.054688 L 82.148438 62.5625 L 84.388672 65.109375 L 84.861328 66.732422 L 85.859375 70.671875 L 85.974609 70.671875 L 86.089844 66.037109 L 86.177734 64.183594 L 83.898438 61.634766 L 83.796875 60.244141 L 83.796875 57.232422 z M 90 90 A 31.600496 31.600496 0 0 1 121.59961 121.59961 A 31.600496 31.600496 0 0 1 90 153.20117 A 31.600496 31.600496 0 0 1 58.400391 121.59961 A 31.600496 31.600496 0 0 1 90 90 z M 55.193359 151.73047 A 4.3548388 4.2627654 0 0 1 59.548828 155.99219 A 4.3548388 4.2627654 0 0 1 55.193359 160.25586 A 4.3548388 4.2627654 0 0 1 50.837891 155.99219 A 4.3548388 4.2627654 0 0 1 55.193359 151.73047 z M 125.19336 151.73047 A 4.3554649 4.2626948 0 0 1 129.54883 155.99414 A 4.3554649 4.2626948 0 0 1 125.19336 160.25586 A 4.3554649 4.2626948 0 0 1 121.16992 157.625 A 4.3554649 4.2626948 0 0 1 120.83789 155.99414 A 4.3554649 4.2626948 0 0 1 121.73828 153.39844 A 4.3554649 4.2626948 0 0 1 122.11328 152.97852 A 4.3554649 4.2626948 0 0 1 125.19336 151.73047 z " /><path
       d="M 90,95.583984 A 26.01737,26.01737 0 0 0 63.982422,121.59961 26.01737,26.01737 0 0 0 90,147.61719 26.01737,26.01737 0 0 0 116.01758,121.59961 26.01737,26.01737 0 0 0 90,95.583984 Z m 0,3.794922 A 22.220844,22.220844 0 0 1 112.2207,121.59961 22.220844,22.220844 0 0 1 90,143.82227 22.220844,22.220844 0 0 1 67.779297,121.59961 22.220844,22.220844 0 0 1 90,99.378906 Z"
       style="fill-rule:evenodd;stroke:#000000;stroke-width:0;stroke-linecap:square;stroke-linejoin:round"
       id="path59" /><path
       d="M 90,115.90625 A 5.6947894,5.6947894 0 0 0 84.304687,121.59961 5.6947894,5.6947894 0 0 0 90,127.29492 5.6947894,5.6947894 0 0 0 95.695312,121.59961 5.6947894,5.6947894 0 0 0 90,115.90625 Z"
       style="fill-rule:evenodd;stroke:#000000;stroke-width:0;stroke-linecap:square;stroke-linejoin:round"
       id="path60" /></g></svg>
